<svg width="60" height="60" viewBox="0 0 60 60" fill="none" xmlns="http://www.w3.org/2000/svg">
<path fill-rule="evenodd" clip-rule="evenodd" d="M30 0C13.44 0 0 13.44 0 30C0 46.56 13.44 60 30 60C46.56 60 60 46.56 60 30C60 13.44 46.56 0 30 0ZM44.7 40.47L40.5 44.67C39.9 45.27 38.97 45.27 38.37 44.67L28.14 34.44C24.48 35.73 20.22 34.95 17.28 32.01C15.7009 30.4231 14.6758 28.3692 14.3569 26.1533C14.038 23.9374 14.4424 21.6778 15.51 19.71L22.56 26.76L26.79 22.53L19.74 15.51C23.7 13.38 28.71 13.95 32.04 17.28C34.98 20.22 35.76 24.48 34.47 28.14L44.7 38.37C45.27 38.94 45.27 39.9 44.7 40.47Z" fill="white"/>
</svg>
